<svg xmlns="http://www.w3.org/2000/svg" xmlns:xlink="http://www.w3.org/1999/xlink" contentStyleType="text/css" data-diagram-type="DESCRIPTION" height="544px" preserveAspectRatio="none" style="width:1363px;height:544px;background:#FFFFFF;" version="1.1" viewBox="0 0 1363 544" width="1363px" zoomAndPan="magnify"><?plantuml 1.2026.3beta4?><defs/><g><g class="title" data-source-line="1"><text fill="#000000" font-family="sans-serif" font-size="14" font-weight="700" lengthAdjust="spacing" textLength="344.6064" x="505.6968" y="22.9951">Diagrama de Pacotes da Arquitetura Logica</text></g><!--cluster Apresentacao--><g class="cluster" data-qualified-name="Apresentacao" data-source-line="5" id="ent0002"><path d="M79.5,43.2969 L189.0547,43.2969 A3.75,3.75 0 0 1 191.5547,45.7969 L198.5547,65.5938 L426.5,65.5938 A2.5,2.5 0 0 1 429,68.0938 L429,267.3969 A2.5,2.5 0 0 1 426.5,269.8969 L79.5,269.8969 A2.5,2.5 0 0 1 77,267.3969 L77,45.7969 A2.5,2.5 0 0 1 79.5,43.2969" fill="none" style="stroke:#000000;stroke-width:1.5;"/><line style="stroke:#000000;stroke-width:1.5;" x1="77" x2="198.5547" y1="65.5938" y2="65.5938"/><text fill="#000000" font-family="sans-serif" font-size="14" font-weight="700" lengthAdjust="spacing" textLength="108.5547" x="81" y="58.292">Apresentacao</text></g><!--cluster Aplicacao--><g class="cluster" data-qualified-name="Aplicacao" data-source-line="12" id="ent0007"><path d="M471.5,156.5969 L548.0645,156.5969 A3.75,3.75 0 0 1 550.5645,159.0969 L557.5645,178.8938 L861.5,178.8938 A2.5,2.5 0 0 1 864,181.3938 L864,373.6869 A2.5,2.5 0 0 1 861.5,376.1869 L471.5,376.1869 A2.5,2.5 0 0 1 469,373.6869 L469,159.0969 A2.5,2.5 0 0 1 471.5,156.5969" fill="none" style="stroke:#000000;stroke-width:1.5;"/><line style="stroke:#000000;stroke-width:1.5;" x1="469" x2="557.5645" y1="178.8938" y2="178.8938"/><text fill="#000000" font-family="sans-serif" font-size="14" font-weight="700" lengthAdjust="spacing" textLength="75.5645" x="473" y="171.592">Aplicacao</text></g><!--cluster Dominio--><g class="cluster" data-qualified-name="Dominio" data-source-line="18" id="ent0011"><path d="M8.5,416.1869 L74.5098,416.1869 A3.75,3.75 0 0 1 77.0098,418.6869 L84.0098,438.4838 L721.5,438.4838 A2.5,2.5 0 0 1 724,440.9838 L724,526.9869 A2.5,2.5 0 0 1 721.5,529.4869 L8.5,529.4869 A2.5,2.5 0 0 1 6,526.9869 L6,418.6869 A2.5,2.5 0 0 1 8.5,416.1869" fill="none" style="stroke:#000000;stroke-width:1.5;"/><line style="stroke:#000000;stroke-width:1.5;" x1="6" x2="84.0098" y1="438.4838" y2="438.4838"/><text fill="#000000" font-family="sans-serif" font-size="14" font-weight="700" lengthAdjust="spacing" textLength="65.0098" x="10" y="431.182">Dominio</text></g><!--cluster Infra--><g class="cluster" data-qualified-name="Infra" data-source-line="25" id="ent0016"><path d="M766.5,416.1869 L879.5205,416.1869 A3.75,3.75 0 0 1 882.0205,418.6869 L889.0205,438.4838 L1345.5,438.4838 A2.5,2.5 0 0 1 1348,440.9838 L1348,526.9869 A2.5,2.5 0 0 1 1345.5,529.4869 L766.5,529.4869 A2.5,2.5 0 0 1 764,526.9869 L764,418.6869 A2.5,2.5 0 0 1 766.5,416.1869" fill="none" style="stroke:#000000;stroke-width:1.5;"/><line style="stroke:#000000;stroke-width:1.5;" x1="764" x2="889.0205" y1="438.4838" y2="438.4838"/><text fill="#000000" font-family="sans-serif" font-size="14" font-weight="700" lengthAdjust="spacing" textLength="112.0205" x="768" y="431.182">Infraestrutura</text></g><!--entity LandingPage--><g class="entity" data-qualified-name="Apresentacao.LandingPage" data-source-line="6" id="ent0003"><rect fill="#F1F1F1" height="46.2969" rx="2.5" ry="2.5" style="stroke:#181818;stroke-width:0.5;" width="135.2041" x="101.4" y="86.2969"/><rect fill="#F1F1F1" height="10" style="stroke:#181818;stroke-width:0.5;" width="15" x="216.6041" y="91.2969"/><rect fill="#F1F1F1" height="2" style="stroke:#181818;stroke-width:0.5;" width="4" x="214.6041" y="93.2969"/><rect fill="#F1F1F1" height="2" style="stroke:#181818;stroke-width:0.5;" width="4" x="214.6041" y="97.2969"/><text fill="#000000" font-family="sans-serif" font-size="14" lengthAdjust="spacing" textLength="95.2041" x="116.4" y="119.292">Landing page</text></g><!--entity AssinaturaUI--><g class="entity" data-qualified-name="Apresentacao.AssinaturaUI" data-source-line="7" id="ent0004"><rect fill="#F1F1F1" height="46.2969" rx="2.5" ry="2.5" style="stroke:#181818;stroke-width:0.5;" width="114.2041" x="271.9" y="86.2969"/><rect fill="#F1F1F1" height="10" style="stroke:#181818;stroke-width:0.5;" width="15" x="366.1041" y="91.2969"/><rect fill="#F1F1F1" height="2" style="stroke:#181818;stroke-width:0.5;" width="4" x="364.1041" y="93.2969"/><rect fill="#F1F1F1" height="2" style="stroke:#181818;stroke-width:0.5;" width="4" x="364.1041" y="97.2969"/><text fill="#000000" font-family="sans-serif" font-size="14" lengthAdjust="spacing" textLength="74.2041" x="286.9" y="119.292">Assinatura</text></g><!--entity LoginUI--><g class="entity" data-qualified-name="Apresentacao.LoginUI" data-source-line="8" id="ent0005"><rect fill="#F1F1F1" height="46.2969" rx="2.5" ry="2.5" style="stroke:#181818;stroke-width:0.5;" width="78.0146" x="129.99" y="199.5969"/><rect fill="#F1F1F1" height="10" style="stroke:#181818;stroke-width:0.5;" width="15" x="188.0046" y="204.5969"/><rect fill="#F1F1F1" height="2" style="stroke:#181818;stroke-width:0.5;" width="4" x="186.0046" y="206.5969"/><rect fill="#F1F1F1" height="2" style="stroke:#181818;stroke-width:0.5;" width="4" x="186.0046" y="210.5969"/><text fill="#000000" font-family="sans-serif" font-size="14" lengthAdjust="spacing" textLength="38.0146" x="144.99" y="232.592">Login</text></g><!--entity PerfilUI--><g class="entity" data-qualified-name="Apresentacao.PerfilUI" data-source-line="9" id="ent0006"><rect fill="#F1F1F1" height="46.2969" rx="2.5" ry="2.5" style="stroke:#181818;stroke-width:0.5;" width="75.5195" x="243.24" y="199.5969"/><rect fill="#F1F1F1" height="10" style="stroke:#181818;stroke-width:0.5;" width="15" x="298.7595" y="204.5969"/><rect fill="#F1F1F1" height="2" style="stroke:#181818;stroke-width:0.5;" width="4" x="296.7595" y="206.5969"/><rect fill="#F1F1F1" height="2" style="stroke:#181818;stroke-width:0.5;" width="4" x="296.7595" y="210.5969"/><text fill="#000000" font-family="sans-serif" font-size="14" lengthAdjust="spacing" textLength="35.5195" x="258.24" y="232.592">Perfil</text></g><!--entity Controladores--><g class="entity" data-qualified-name="Aplicacao.Controladores" data-source-line="13" id="ent0008"><rect fill="#F1F1F1" height="46.2969" rx="2.5" ry="2.5" style="stroke:#181818;stroke-width:0.5;" width="138.6084" x="580.7" y="199.5969"/><rect fill="#F1F1F1" height="10" style="stroke:#181818;stroke-width:0.5;" width="15" x="699.3084" y="204.5969"/><rect fill="#F1F1F1" height="2" style="stroke:#181818;stroke-width:0.5;" width="4" x="697.3084" y="206.5969"/><rect fill="#F1F1F1" height="2" style="stroke:#181818;stroke-width:0.5;" width="4" x="697.3084" y="210.5969"/><text fill="#000000" font-family="sans-serif" font-size="14" lengthAdjust="spacing" textLength="98.6084" x="595.7" y="232.592">Controladores</text></g><!--entity Validacoes--><g class="entity" data-qualified-name="Aplicacao.Validacoes" data-source-line="14" id="ent0009"><rect fill="#F1F1F1" height="46.2969" rx="2.5" ry="2.5" style="stroke:#181818;stroke-width:0.5;" width="115.5713" x="493.21" y="305.8969"/><rect fill="#F1F1F1" height="10" style="stroke:#181818;stroke-width:0.5;" width="15" x="588.7813" y="310.8969"/><rect fill="#F1F1F1" height="2" style="stroke:#181818;stroke-width:0.5;" width="4" x="586.7813" y="312.8969"/><rect fill="#F1F1F1" height="2" style="stroke:#181818;stroke-width:0.5;" width="4" x="586.7813" y="316.8969"/><text fill="#000000" font-family="sans-serif" font-size="14" lengthAdjust="spacing" textLength="75.5713" x="508.21" y="338.892">Validacoes</text></g><!--entity RegrasAssinatura--><g class="entity" data-qualified-name="Aplicacao.RegrasAssinatura" data-source-line="15" id="ent0010"><rect fill="#F1F1F1" height="46.2969" rx="2.5" ry="2.5" style="stroke:#181818;stroke-width:0.5;" width="188.4629" x="643.77" y="305.8969"/><rect fill="#F1F1F1" height="10" style="stroke:#181818;stroke-width:0.5;" width="15" x="812.2329" y="310.8969"/><rect fill="#F1F1F1" height="2" style="stroke:#181818;stroke-width:0.5;" width="4" x="810.2329" y="312.8969"/><rect fill="#F1F1F1" height="2" style="stroke:#181818;stroke-width:0.5;" width="4" x="810.2329" y="316.8969"/><text fill="#000000" font-family="sans-serif" font-size="14" lengthAdjust="spacing" textLength="148.4629" x="658.77" y="338.892">Regras de assinatura</text></g><!--entity Usuario--><g class="entity" data-qualified-name="Dominio.Usuario" data-source-line="19" id="ent0012"><rect fill="#F1F1F1" height="46.2969" rx="2.5" ry="2.5" style="stroke:#181818;stroke-width:0.5;" width="93.2041" x="49.4" y="459.1869"/><rect fill="#F1F1F1" height="10" style="stroke:#181818;stroke-width:0.5;" width="15" x="122.6041" y="464.1869"/><rect fill="#F1F1F1" height="2" style="stroke:#181818;stroke-width:0.5;" width="4" x="120.6041" y="466.1869"/><rect fill="#F1F1F1" height="2" style="stroke:#181818;stroke-width:0.5;" width="4" x="120.6041" y="470.1869"/><text fill="#000000" font-family="sans-serif" font-size="14" lengthAdjust="spacing" textLength="53.2041" x="64.4" y="492.182">Usuario</text></g><!--entity ContaEmpresa--><g class="entity" data-qualified-name="Dominio.ContaEmpresa" data-source-line="20" id="ent0013"><rect fill="#F1F1F1" height="46.2969" rx="2.5" ry="2.5" style="stroke:#181818;stroke-width:0.5;" width="142.8945" x="177.55" y="459.1869"/><rect fill="#F1F1F1" height="10" style="stroke:#181818;stroke-width:0.5;" width="15" x="300.4445" y="464.1869"/><rect fill="#F1F1F1" height="2" style="stroke:#181818;stroke-width:0.5;" width="4" x="298.4445" y="466.1869"/><rect fill="#F1F1F1" height="2" style="stroke:#181818;stroke-width:0.5;" width="4" x="298.4445" y="470.1869"/><text fill="#000000" font-family="sans-serif" font-size="14" lengthAdjust="spacing" textLength="102.8945" x="192.55" y="492.182">ContaEmpresa</text></g><!--entity Assinatura--><g class="entity" data-qualified-name="Dominio.Assinatura" data-source-line="21" id="ent0014"><rect fill="#F1F1F1" height="46.2969" rx="2.5" ry="2.5" style="stroke:#181818;stroke-width:0.5;" width="114.2041" x="355.9" y="459.1869"/><rect fill="#F1F1F1" height="10" style="stroke:#181818;stroke-width:0.5;" width="15" x="450.1041" y="464.1869"/><rect fill="#F1F1F1" height="2" style="stroke:#181818;stroke-width:0.5;" width="4" x="448.1041" y="466.1869"/><rect fill="#F1F1F1" height="2" style="stroke:#181818;stroke-width:0.5;" width="4" x="448.1041" y="470.1869"/><text fill="#000000" font-family="sans-serif" font-size="14" lengthAdjust="spacing" textLength="74.2041" x="370.9" y="492.182">Assinatura</text></g><!--entity IntegracaoPagamento--><g class="entity" data-qualified-name="Dominio.IntegracaoPagamento" data-source-line="22" id="ent0015"><rect fill="#F1F1F1" height="46.2969" rx="2.5" ry="2.5" style="stroke:#181818;stroke-width:0.5;" width="194.834" x="505.58" y="459.1869"/><rect fill="#F1F1F1" height="10" style="stroke:#181818;stroke-width:0.5;" width="15" x="680.414" y="464.1869"/><rect fill="#F1F1F1" height="2" style="stroke:#181818;stroke-width:0.5;" width="4" x="678.414" y="466.1869"/><rect fill="#F1F1F1" height="2" style="stroke:#181818;stroke-width:0.5;" width="4" x="678.414" y="470.1869"/><text fill="#000000" font-family="sans-serif" font-size="14" lengthAdjust="spacing" textLength="154.834" x="520.58" y="492.182">IntegracaoPagamento</text></g><!--entity Supabase--><g class="entity" data-qualified-name="Infra.Supabase" data-source-line="26" id="ent0017"><rect fill="#F1F1F1" height="46.2969" rx="2.5" ry="2.5" style="stroke:#181818;stroke-width:0.5;" width="108.5986" x="787.7" y="459.1869"/><rect fill="#F1F1F1" height="10" style="stroke:#181818;stroke-width:0.5;" width="15" x="876.2986" y="464.1869"/><rect fill="#F1F1F1" height="2" style="stroke:#181818;stroke-width:0.5;" width="4" x="874.2986" y="466.1869"/><rect fill="#F1F1F1" height="2" style="stroke:#181818;stroke-width:0.5;" width="4" x="874.2986" y="470.1869"/><text fill="#000000" font-family="sans-serif" font-size="14" lengthAdjust="spacing" textLength="68.5986" x="802.7" y="492.182">Supabase</text></g><!--entity Stripe--><g class="entity" data-qualified-name="Infra.Stripe" data-source-line="27" id="ent0018"><rect fill="#F1F1F1" height="46.2969" rx="2.5" ry="2.5" style="stroke:#181818;stroke-width:0.5;" width="81.5215" x="931.24" y="459.1869"/><rect fill="#F1F1F1" height="10" style="stroke:#181818;stroke-width:0.5;" width="15" x="992.7615" y="464.1869"/><rect fill="#F1F1F1" height="2" style="stroke:#181818;stroke-width:0.5;" width="4" x="990.7615" y="466.1869"/><rect fill="#F1F1F1" height="2" style="stroke:#181818;stroke-width:0.5;" width="4" x="990.7615" y="470.1869"/><text fill="#000000" font-family="sans-serif" font-size="14" lengthAdjust="spacing" textLength="41.5215" x="946.24" y="492.182">Stripe</text></g><!--entity MercadoPago--><g class="entity" data-qualified-name="Infra.MercadoPago" data-source-line="28" id="ent0019"><rect fill="#F1F1F1" height="46.2969" rx="2.5" ry="2.5" style="stroke:#181818;stroke-width:0.5;" width="139.1006" x="1047.45" y="459.1869"/><rect fill="#F1F1F1" height="10" style="stroke:#181818;stroke-width:0.5;" width="15" x="1166.5506" y="464.1869"/><rect fill="#F1F1F1" height="2" style="stroke:#181818;stroke-width:0.5;" width="4" x="1164.5506" y="466.1869"/><rect fill="#F1F1F1" height="2" style="stroke:#181818;stroke-width:0.5;" width="4" x="1164.5506" y="470.1869"/><text fill="#000000" font-family="sans-serif" font-size="14" lengthAdjust="spacing" textLength="99.1006" x="1062.45" y="492.182">Mercado Pago</text></g><!--entity Email--><g class="entity" data-qualified-name="Infra.Email" data-source-line="29" id="ent0020"><rect fill="#F1F1F1" height="46.2969" rx="2.5" ry="2.5" style="stroke:#181818;stroke-width:0.5;" width="83.8936" x="1221.05" y="459.1869"/><rect fill="#F1F1F1" height="10" style="stroke:#181818;stroke-width:0.5;" width="15" x="1284.9436" y="464.1869"/><rect fill="#F1F1F1" height="2" style="stroke:#181818;stroke-width:0.5;" width="4" x="1282.9436" y="466.1869"/><rect fill="#F1F1F1" height="2" style="stroke:#181818;stroke-width:0.5;" width="4" x="1282.9436" y="470.1869"/><text fill="#000000" font-family="sans-serif" font-size="14" lengthAdjust="spacing" textLength="43.8936" x="1236.05" y="492.182">E-mail</text></g><!--link Apresentacao to Aplicacao--><g class="link" data-entity-1="ent0002" data-entity-2="ent0007" data-link-type="dependency" data-source-line="32" id="lnk21"><path d="M429.1142,110.4069 C430.0689,110.4034 431.1026,110.4 432.2125,110.3968 C434.4323,110.3904 436.957,110.3849 439.7641,110.3815 C450.9926,110.3678 466.7402,110.3872 485.5728,110.5144 C523.2381,110.7688 573.2438,111.4544 624.1175,113.1694 C725.865,116.5994 831.085,124.1469 848,140.5969 C851.1463,143.6569 853.6478,147.1658 855.6147,150.97 C856.1064,151.9211 856.5647,152.8906 856.9913,153.8761 C857.2046,154.3689 857.41,154.8657 857.6077,155.3662 C857.7065,155.6165 857.8034,155.8677 857.8984,156.1197 C857.9459,156.2458 855.9203,173.0383 855.9669,173.1647" fill="none" id="Apresentacao-to-Aplicacao" style="stroke:#181818;stroke-width:1;stroke-dasharray:7,7;"/><polygon fill="#181818" points="858.0395,178.7954,858.6844,168.9677,856.3123,174.1032,851.1768,171.7311,858.0395,178.7954" style="stroke:#181818;stroke-width:1;"/></g><!--link Aplicacao to Dominio--><g class="link" data-entity-1="ent0007" data-entity-2="ent0011" data-link-type="dependency" data-source-line="33" id="lnk22"><path d="M467.6982,307.0653 C464.6217,307.4312 461.5691,307.774 458.5398,308.0947 C452.4812,308.7363 446.516,309.29 440.6397,309.7654 C428.8871,310.7163 417.4903,311.3541 406.414,311.7555 C384.2615,312.5584 363.3912,312.4159 343.5211,311.9419 C303.7809,310.9938 268.0419,308.7194 234.0487,310.0294 C166.0625,312.6494 105.06,329.6069 33,400.1869 C29.795,403.3256 27.0877,406.8942 24.8044,410.7425 C24.2336,411.7046 23.6893,412.6842 23.1704,413.6788 C22.9109,414.1762 22.6578,414.6773 22.4109,415.1819 C22.2874,415.4343 24.7351,410.2655 24.6147,410.5195" fill="none" id="Aplicacao-to-Dominio" style="stroke:#181818;stroke-width:1;stroke-dasharray:7,7;"/><polygon fill="#181818" points="22.0451,415.9415,29.5141,409.5217,24.1864,411.4232,22.2849,406.0955,22.0451,415.9415" style="stroke:#181818;stroke-width:1;"/></g><!--link Aplicacao to Infra--><g class="link" data-entity-1="ent0007" data-entity-2="ent0016" data-link-type="dependency" data-source-line="34" id="lnk23"><path d="M864.5591,224.1645 C864.7812,224.1774 865.0073,224.1907 865.2375,224.2044 C867.0791,224.3138 869.18,224.4471 871.5254,224.6087 C880.907,225.2549 894.2014,226.3529 910.4678,228.1814 C943.0006,231.8384 987.4212,238.4175 1036.2025,250.1481 C1133.765,273.6094 1248.77,317.6769 1321,400.1869 C1323.955,403.5619 1326.473,407.3095 1328.6164,411.2901 C1329.1523,412.2852 1329.6647,413.2949 1330.1547,414.317 C1330.3997,414.828 1328.1656,432.1726 1328.3995,432.6896" fill="none" id="Aplicacao-to-Infra" style="stroke:#181818;stroke-width:1;stroke-dasharray:7,7;"/><polygon fill="#181818" points="1330.8731,438.156,1330.8071,428.3074,1328.8118,433.6007,1323.5185,431.6054,1330.8731,438.156" style="stroke:#181818;stroke-width:1;"/></g><!--link Controladores to Validacoes--><g class="link" data-entity-1="ent0008" data-entity-2="ent0009" data-link-type="dependency" data-source-line="36" id="lnk24"><path d="M628.52,246.3769 C611.91,263.8669 593.1604,283.6249 576.5704,301.1049" fill="none" id="Controladores-to-Validacoes" style="stroke:#181818;stroke-width:1;stroke-dasharray:7,7;"/><polygon fill="#181818" points="572.44,305.4569,581.5369,301.6825,575.882,301.8302,575.7343,296.1753,572.44,305.4569" style="stroke:#181818;stroke-width:1;"/></g><!--link Controladores to RegrasAssinatura--><g class="link" data-entity-1="ent0008" data-entity-2="ent0010" data-link-type="dependency" data-source-line="37" id="lnk25"><path d="M669.09,246.3769 C683.86,263.8669 700.3206,283.3913 715.0706,300.8713" fill="none" id="Controladores-to-RegrasAssinatura" style="stroke:#181818;stroke-width:1;stroke-dasharray:7,7;"/><polygon fill="#181818" points="718.94,305.4569,716.1929,295.9989,715.7155,301.6356,710.0788,301.1581,718.94,305.4569" style="stroke:#181818;stroke-width:1;"/></g><!--link RegrasAssinatura to Usuario--><g class="link" data-entity-1="ent0010" data-entity-2="ent0012" data-link-type="dependency" data-source-line="38" id="lnk26"><path d="M707.44,352.4169 C685.87,366.8069 655.64,384.2469 626,392.1869 C600.99,398.8969 183.2,388.6969 160,400.1869 C135.24,412.4569 119.9633,434.0588 109.4433,453.5188" fill="none" id="RegrasAssinatura-to-Usuario" style="stroke:#181818;stroke-width:1;stroke-dasharray:7,7;"/><polygon fill="#181818" points="106.59,458.7969,114.3887,452.7819,108.9678,454.3984,107.3512,448.9775,106.59,458.7969" style="stroke:#181818;stroke-width:1;"/></g><!--link RegrasAssinatura to ContaEmpresa--><g class="link" data-entity-1="ent0010" data-entity-2="ent0013" data-link-type="dependency" data-source-line="39" id="lnk27"><path d="M706.94,352.6269 C685.39,366.9169 655.38,384.1469 626,392.1869 C595.12,400.6369 367.69,388.2069 338,400.1869 C308.14,412.2369 285.814,434.5251 269.724,454.0651" fill="none" id="RegrasAssinatura-to-ContaEmpresa" style="stroke:#181818;stroke-width:1;stroke-dasharray:7,7;"/><polygon fill="#181818" points="265.91,458.6969,274.7188,454.2919,269.0883,454.8371,268.5431,449.2065,265.91,458.6969" style="stroke:#181818;stroke-width:1;"/></g><!--link RegrasAssinatura to Assinatura--><g class="link" data-entity-1="ent0010" data-entity-2="ent0014" data-link-type="dependency" data-source-line="40" id="lnk28"><path d="M706.39,352.6569 C684.84,366.7569 655.05,383.7669 626,392.1869 C596.5,400.7469 515.77,387.0669 488,400.1869 C461.29,412.8069 442.9254,434.6328 429.8654,453.9928" fill="none" id="RegrasAssinatura-to-Assinatura" style="stroke:#181818;stroke-width:1;stroke-dasharray:7,7;"/><polygon fill="#181818" points="426.51,458.9669,434.8592,453.7428,429.3062,454.8218,428.2271,449.2689,426.51,458.9669" style="stroke:#181818;stroke-width:1;"/></g><!--link RegrasAssinatura to IntegracaoPagamento--><g class="link" data-entity-1="ent0010" data-entity-2="ent0015" data-link-type="dependency" data-source-line="41" id="lnk29"><path d="M718.08,352.3669 C692.56,380.9669 652.5543,425.7997 626.9943,454.4497" fill="none" id="RegrasAssinatura-to-IntegracaoPagamento" style="stroke:#181818;stroke-width:1;stroke-dasharray:7,7;"/><polygon fill="#181818" points="623,458.9269,631.9763,454.8739,626.3286,455.1959,626.0067,449.5482,623,458.9269" style="stroke:#181818;stroke-width:1;"/></g><!--link RegrasAssinatura to Supabase--><g class="link" data-entity-1="ent0010" data-entity-2="ent0017" data-link-type="dependency" data-source-line="42" id="lnk30"><path d="M753.35,352.3669 C773.01,380.9669 803.5016,425.3321 823.1916,453.9821" fill="none" id="RegrasAssinatura-to-Supabase" style="stroke:#181818;stroke-width:1;stroke-dasharray:7,7;"/><polygon fill="#181818" points="826.59,458.9269,824.789,449.2441,823.758,454.8062,818.1959,453.7752,826.59,458.9269" style="stroke:#181818;stroke-width:1;"/></g><!--link RegrasAssinatura to Stripe--><g class="link" data-entity-1="ent0010" data-entity-2="ent0018" data-link-type="dependency" data-source-line="43" id="lnk31"><path d="M821.98,352.5469 C852.98,363.5569 887.08,379.0869 914,400.1869 C934.31,416.1069 947.6852,435.7536 957.7852,453.7636" fill="none" id="RegrasAssinatura-to-Stripe" style="stroke:#181818;stroke-width:1;stroke-dasharray:7,7;"/><polygon fill="#181818" points="960.72,458.9969,959.8066,449.1905,958.2743,454.6358,952.829,453.1035,960.72,458.9969" style="stroke:#181818;stroke-width:1;"/></g><!--link RegrasAssinatura to MercadoPago--><g class="link" data-entity-1="ent0010" data-entity-2="ent0019" data-link-type="dependency" data-source-line="44" id="lnk32"><path d="M832.48,340.2169 C891.92,349.5769 968.69,367.2369 1030,400.1869 C1057.47,414.9569 1078.8528,436.0181 1095.0128,454.5181" fill="none" id="RegrasAssinatura-to-MercadoPago" style="stroke:#181818;stroke-width:1;stroke-dasharray:7,7;"/><polygon fill="#181818" points="1098.96,459.0369,1096.0517,449.6272,1095.6706,455.2712,1090.0266,454.8902,1098.96,459.0369" style="stroke:#181818;stroke-width:1;"/></g><!--link RegrasAssinatura to Email--><g class="link" data-entity-1="ent0010" data-entity-2="ent0020" data-link-type="dependency" data-source-line="45" id="lnk33"><path d="M832.48,349.7869 C902.23,363.6669 999.65,381.5869 1086,392.1869 C1112.09,395.3969 1181,387.4769 1204,400.1869 C1227.32,413.0769 1241.1758,434.1708 1250.6958,453.3808" fill="none" id="RegrasAssinatura-to-Email" style="stroke:#181818;stroke-width:1;stroke-dasharray:7,7;"/><polygon fill="#181818" points="1253.36,458.7569,1252.9477,448.9167,1251.1398,454.2768,1245.7796,452.469,1253.36,458.7569" style="stroke:#181818;stroke-width:1;"/></g><?plantuml-src ZLBBQiCm4BphAvRScqyeXCQ7G0gX9RrlPCM8sf8ghK-b_rwzOaUAeBtjpenNivubIQE0lSJ1ueJG2pWXroGSz0Wx-pLB4ZHRXACU94V6I1iW3HTDf2VefHMSf5QC6UIVE0ZOx8mLJYX2Zde3wE0UW6y6mFLajF88R8weUga6CFxJACx0oVUbSkUSL1YyfA5BUpvK8xrJbMQ5ggPFmbxb6FbKUi5FON_qYwxUSrSRVz6Ah1wnrtwvA2sGKlo1e-pzVytAjIrbRyAdu488M2wRY7Nbml1UJrB9P3VNjTcpcz5cIQuVjy5k2a7XiimD-6SEfUoWA9ZsVyv7YPF7qlCDlDZceAuMXICxBqz4g5xfVJPuGPUEvjPK4hBIP44iI_fLMEx3yWS_96iP27sfx9ucp2VJXIeOBevwktrUBuMjDnFm74c5nfqOAsuc4dUtyKW-t44DHDKjuIPP1DjK_3M-bM1JkAJIPbCaJUu-YQOWnl0B?></g></svg>
