<svg xmlns="http://www.w3.org/2000/svg" xmlns:xlink="http://www.w3.org/1999/xlink" contentStyleType="text/css" data-diagram-type="DESCRIPTION" height="286px" preserveAspectRatio="none" style="width:1242px;height:286px;background:#FFFFFF;" version="1.1" viewBox="0 0 1242 286" width="1242px" zoomAndPan="magnify"><?plantuml 1.2026.3beta4?><defs/><g><g class="title" data-source-line="1"><text fill="#000000" font-family="sans-serif" font-size="14" font-weight="700" lengthAdjust="spacing" textLength="396.3613" x="419.7429" y="22.9951">Diagrama de Implantacao Simplificado da Solu&#231;&#227;o</text></g><!--entity Cliente--><g class="entity" data-qualified-name="Cliente" data-source-line="5" id="ent0002"><polygon fill="#F1F1F1" points="16,118.7991,26,108.7991,233.9463,108.7991,233.9463,177.6897,223.9463,187.6897,16,187.6897,16,118.7991" style="stroke:#181818;stroke-width:0.5;"/><line style="stroke:#181818;stroke-width:0.5;" x1="223.9463" x2="233.9463" y1="118.7991" y2="108.7991"/><line style="stroke:#181818;stroke-width:0.5;" x1="16" x2="223.9463" y1="118.7991" y2="118.7991"/><line style="stroke:#181818;stroke-width:0.5;" x1="223.9463" x2="223.9463" y1="118.7991" y2="187.6897"/><text fill="#000000" font-family="sans-serif" font-size="14" lengthAdjust="spacing" textLength="70.5537" x="31" y="141.7942">No cliente</text><text fill="#000000" font-family="sans-serif" font-size="14" lengthAdjust="spacing" textLength="110.0244" x="31" y="158.0911">Navegador web</text><text fill="#000000" font-family="sans-serif" font-size="14" lengthAdjust="spacing" textLength="177.9463" x="31" y="174.3879">HTML + CSS + JavaScript</text></g><!--entity Web--><g class="entity" data-qualified-name="Web" data-source-line="6" id="ent0003"><polygon fill="#F1F1F1" points="336.95,118.7991,346.95,108.7991,462.3035,108.7991,462.3035,177.6897,452.3035,187.6897,336.95,187.6897,336.95,118.7991" style="stroke:#181818;stroke-width:0.5;"/><line style="stroke:#181818;stroke-width:0.5;" x1="452.3035" x2="462.3035" y1="118.7991" y2="108.7991"/><line style="stroke:#181818;stroke-width:0.5;" x1="336.95" x2="452.3035" y1="118.7991" y2="118.7991"/><line style="stroke:#181818;stroke-width:0.5;" x1="452.3035" x2="452.3035" y1="118.7991" y2="187.6897"/><text fill="#000000" font-family="sans-serif" font-size="14" lengthAdjust="spacing" textLength="52.4385" x="351.95" y="141.7942">No web</text><text fill="#000000" font-family="sans-serif" font-size="14" lengthAdjust="spacing" textLength="44.1465" x="351.95" y="158.0911">Vercel</text><text fill="#000000" font-family="sans-serif" font-size="14" lengthAdjust="spacing" textLength="85.3535" x="351.95" y="174.3879">site estatico</text></g><!--entity Backend--><g class="entity" data-qualified-name="Backend" data-source-line="7" id="ent0004"><polygon fill="#F1F1F1" points="587.3,118.7991,597.3,108.7991,889.4172,108.7991,889.4172,177.6897,879.4172,187.6897,587.3,187.6897,587.3,118.7991" style="stroke:#181818;stroke-width:0.5;"/><line style="stroke:#181818;stroke-width:0.5;" x1="879.4172" x2="889.4172" y1="118.7991" y2="108.7991"/><line style="stroke:#181818;stroke-width:0.5;" x1="587.3" x2="879.4172" y1="118.7991" y2="118.7991"/><line style="stroke:#181818;stroke-width:0.5;" x1="879.4172" x2="879.4172" y1="118.7991" y2="187.6897"/><text fill="#000000" font-family="sans-serif" font-size="14" lengthAdjust="spacing" textLength="83.1318" x="602.3" y="141.7942">No backend</text><text fill="#000000" font-family="sans-serif" font-size="14" lengthAdjust="spacing" textLength="68.5986" x="602.3" y="158.0911">Supabase</text><text fill="#000000" font-family="sans-serif" font-size="14" lengthAdjust="spacing" textLength="262.1172" x="602.3" y="174.3879">Auth + PostgreSQL + Edge Functions</text></g><!--entity Stripe--><g class="entity" data-qualified-name="Stripe" data-source-line="8" id="ent0005"><path d="M1124.9259,53.0742 C1128.4479,46.9154 1134.659,47.0045 1138.5818,52.6089 C1140.3018,44.841 1146.7364,44.8062 1151.6237,49.2171 C1157.079,43.6868 1164.4274,43.2969 1167.1603,52.1564 C1171.47,44.8179 1176.6845,45.4635 1180.885,52.2625 C1190.4004,56.1034 1191.0567,63.5759 1182.5571,69.1957 C1189.168,74.74 1186.5583,80.2726 1179.7597,83.1236 C1177.0015,90.8285 1171.3818,93.2931 1165.1608,86.6459 C1162.1395,92.964 1157.9423,93.9522 1152.349,89.79 C1146.3736,94.384 1141.7517,94.0917 1138.6712,86.532 C1133.6421,93.9694 1126.579,91.9055 1123.7223,84.364 C1112.3879,83.2244 1110.7189,77.507 1115.5693,68.2027 C1110.3634,59.3658 1115.8918,53.104 1124.9259,53.0742" fill="#F1F1F1" style="stroke:#181818;stroke-width:0.5;"/><text fill="#000000" font-family="sans-serif" font-size="14" lengthAdjust="spacing" textLength="41.5215" x="1130.42" y="72.0842">Stripe</text></g><!--entity MercadoPago--><g class="entity" data-qualified-name="MercadoPago" data-source-line="9" id="ent0006"><path d="M1096.4778,133.6255 C1100.6605,128.9631 1104.4161,129.0272 1107.7564,134.5577 C1110.5264,128.8489 1113.7638,127.5855 1118.4335,132.6803 C1121.708,127.6378 1125.9394,126.6551 1129.7162,132.1421 C1133.4042,125.3877 1137.8321,125.487 1142.057,131.6284 C1144.4667,126.1082 1149.6686,125.4026 1153.1259,130.5404 C1157.3761,125.6223 1161.2802,126.2752 1164.6581,131.5293 C1167.965,126.4396 1172.8143,127.1019 1175.7772,131.9155 C1179.9528,127.7476 1183.5889,127.3866 1186.7643,133.035 C1190.0366,128.7991 1193.27,128.703 1196.7667,132.7643 C1200.7102,128.2176 1205.6819,129.2757 1208.2403,134.4065 C1217.2603,135.7527 1220.5508,140.1328 1216.1179,148.8277 C1219.5515,157.1787 1218.2814,162.3531 1208.3478,163.7385 C1206.469,169.6329 1202.5785,170.5192 1198.308,166.0571 C1193.9816,171.7424 1190.0013,171.9334 1185.4472,166.3163 C1182.3019,172.6673 1177.6325,171.5499 1173.8361,167.0106 C1171.1263,171.3732 1167.2209,171.3197 1164.6708,166.8449 C1161.0043,174.4148 1156.3472,173.6042 1151.2616,168.326 C1147.5683,172.0704 1143.4821,171.3556 1141.9937,166.0644 C1139.2613,172.3134 1133.7821,172.0103 1130.1787,166.9763 C1126.302,171.5352 1120.841,171.036 1119.0415,164.8277 C1115.7269,171.4511 1110.3157,170.6714 1106.897,164.93 C1103.4125,170.4583 1098.5369,170.7443 1095.4046,164.5837 C1087.5309,160.5071 1086.9297,155.7864 1093.6534,149.9616 C1087.0963,144.2549 1087.5147,136.6489 1096.4778,133.6255" fill="#F1F1F1" style="stroke:#181818;stroke-width:0.5;"/><text fill="#000000" font-family="sans-serif" font-size="14" lengthAdjust="spacing" textLength="99.1006" x="1101.63" y="153.0842">Mercado Pago</text></g><!--entity Email--><g class="entity" data-qualified-name="Email" data-source-line="10" id="ent0007"><path d="M1090.3989,215.0723 C1094.6585,208.7579 1099.0396,208.4743 1103.7329,214.6078 C1107.0856,209.0006 1111.8493,209.5271 1114.6011,215.1875 C1117.7346,209.391 1123.6019,208.598 1127.4485,214.3974 C1131.5844,208.142 1135.4927,208.2568 1139.2425,214.7544 C1142.7953,206.9102 1147.7467,206.1245 1153.2014,212.9439 C1157.5442,207.7861 1160.9389,209.4539 1163.7943,214.4895 C1167.2042,209.4202 1173.1362,208.8876 1176.4108,214.647 C1180.1035,208.5442 1186.4653,208.2478 1189.4226,215.3706 C1192.8712,209.7499 1199.0906,209.5289 1202.4681,215.4508 C1205.99,210.3479 1209.1616,210.5068 1212.9422,215.1733 C1220.4881,216.9591 1222.8694,220.5051 1218.4562,227.5982 C1224.6744,228.1498 1227.1167,231.8756 1223.5408,237.4712 C1227.8471,242.8604 1225.097,248.1805 1218.7227,249.1714 C1223.4611,254.3774 1221.5409,259.9081 1214.8998,261.6194 C1210.4083,268.3606 1204.9962,267.4034 1200.6262,261.4825 C1198.89,267.5155 1194.5173,268.2963 1190.4201,263.7632 C1186.3887,269.8001 1181.5601,269.7561 1177.5376,263.7538 C1173.5824,270.0208 1168.8858,270.701 1164.2743,264.4493 C1161.3225,270.3324 1157.2657,270.5214 1153.226,265.5574 C1148.988,271.7755 1144.5265,271.3256 1140.5002,265.3367 C1136.3788,271.6927 1129.6958,270.5888 1126.5259,264.2864 C1122.6612,269.3126 1118.1678,268.2618 1116.1015,262.5418 C1111.8305,268.8586 1107.9299,267.8412 1103.5816,262.6258 C1099.9707,268.1099 1094.135,268.7331 1090.5261,262.6235 C1082.6186,260.517 1081.5496,255.0626 1086.0645,248.9135 C1079.9506,247.2779 1078.9735,241.7447 1083.1003,237.459 C1080.0071,232.2866 1081.8566,227.6063 1088.1534,226.9482 C1083.7583,222.2821 1084.654,217.8211 1090.3989,215.0723" fill="#F1F1F1" style="stroke:#181818;stroke-width:0.5;"/><text fill="#000000" font-family="sans-serif" font-size="14" lengthAdjust="spacing" textLength="109.5186" x="1096.42" y="233.9442">Resend / E-mail</text><text fill="#000000" font-family="sans-serif" font-size="14" lengthAdjust="spacing" textLength="86.0645" x="1096.42" y="250.2411">transacional</text></g><!--link Cliente to Web--><g class="link" data-entity-1="ent0002" data-entity-2="ent0003" data-link-type="dependency" data-source-line="12" id="lnk8"><path d="M234.12,148.2391 C268.91,148.2391 300.26,148.2391 330.57,148.2391" fill="none" id="Cliente-to-Web" style="stroke:#181818;stroke-width:1;"/><polygon fill="#181818" points="336.57,148.2391,327.57,144.2391,331.57,148.2391,327.57,152.2391,336.57,148.2391" style="stroke:#181818;stroke-width:1;"/><text fill="#000000" font-family="sans-serif" font-size="13" lengthAdjust="spacing" textLength="41.7485" x="264.95" y="144.306">HTTPS</text></g><!--link Web to Backend--><g class="link" data-entity-1="ent0003" data-entity-2="ent0004" data-link-type="dependency" data-source-line="13" id="lnk9"><path d="M462.78,148.2391 C497.84,148.2391 537.29,148.2391 581.08,148.2391" fill="none" id="Web-to-Backend" style="stroke:#181818;stroke-width:1;"/><polygon fill="#181818" points="587.08,148.2391,578.08,144.2391,582.08,148.2391,578.08,152.2391,587.08,148.2391" style="stroke:#181818;stroke-width:1;"/><text fill="#000000" font-family="sans-serif" font-size="13" lengthAdjust="spacing" textLength="63.6797" x="493.3" y="144.306">API / Auth</text></g><!--link Backend to Stripe--><g class="link" data-entity-1="ent0004" data-entity-2="ent0005" data-link-type="dependency" data-source-line="14" id="lnk10"><path d="M889.71,118.5991 C971.27,102.5191 1059.4534,85.1298 1109.2034,75.3198" fill="none" id="Backend-to-Stripe" style="stroke:#181818;stroke-width:1;"/><polygon fill="#181818" points="1115.09,74.1591,1105.4862,71.9758,1110.1845,75.1264,1107.0339,79.8247,1115.09,74.1591" style="stroke:#181818;stroke-width:1;"/><text fill="#000000" font-family="sans-serif" font-size="13" lengthAdjust="spacing" textLength="130.5522" x="920.42" y="83.306">checkout / webhook</text></g><!--link Backend to MercadoPago--><g class="link" data-entity-1="ent0004" data-entity-2="ent0006" data-link-type="dependency" data-source-line="15" id="lnk11"><path d="M889.71,148.2391 C957.41,148.2391 1027.72,148.2391 1080.16,148.2391" fill="none" id="Backend-to-MercadoPago" style="stroke:#181818;stroke-width:1;"/><polygon fill="#181818" points="1086.16,148.2391,1077.16,144.2391,1081.16,148.2391,1077.16,152.2391,1086.16,148.2391" style="stroke:#181818;stroke-width:1;"/><text fill="#000000" font-family="sans-serif" font-size="13" lengthAdjust="spacing" textLength="40.7012" x="965.42" y="144.306">OAuth</text></g><!--link Backend to Email--><g class="link" data-entity-1="ent0004" data-entity-2="ent0007" data-link-type="dependency" data-source-line="16" id="lnk12"><path d="M889.71,180.8091 C955.23,195.0091 1022.9661,209.6786 1075.1661,220.9886" fill="none" id="Backend-to-Email" style="stroke:#181818;stroke-width:1;"/><polygon fill="#181818" points="1081.03,222.2591,1073.0811,216.444,1076.1434,221.2003,1071.3871,224.2626,1081.03,222.2591" style="stroke:#181818;stroke-width:1;"/><text fill="#000000" font-family="sans-serif" font-size="13" lengthAdjust="spacing" textLength="100.5532" x="935.42" y="184.306">envio de e-mail</text></g><?plantuml-src PLB1JW8n4BttAoPS3V7kmGGH8qPmjKGlN6Qxmsv3QKaxYn_amG_Xnvns8MYyDDCtRzvxqvGjEu9xYst47K93CD_j7Nf6Wm6qbOlTM8DDW0P11zSVluzVGIb76mOE46tRCJGsac4Rl58-YCXe6S0uIvvfxPTue5OK8dnIlVQFgyKpNC5KQpcVy83QHBld4M22wJ1p4IaJxnGDkRLFbWaeCR8reV0_gBvmQpHRyitQwtwFDIQndlJSYKiL4hUHz6isdZKjmKFlIzvKPEw6IMLSw1iOQPP0L3f3UMui94X-YWhRmVy4vFkPyqP9fE0QPkCTMadD4Nr28sReoj0iuqgTTeNn-3Rl0JVmk5fLMkKwOwTGWa-gkUZbNTGPp8GXc_HDHsORUXQIl5SNmlOFxrT88R_yqobvf4F-O4F-0bII_m00?></g></svg>
