<svg xmlns="http://www.w3.org/2000/svg" xmlns:xlink="http://www.w3.org/1999/xlink" contentStyleType="text/css" data-diagram-type="DESCRIPTION" height="779px" preserveAspectRatio="none" style="width:411px;height:779px;background:#FFFFFF;" version="1.1" viewBox="0 0 411 779" width="411px" zoomAndPan="magnify"><?plantuml 1.2026.3beta4?><defs/><g><g class="title" data-source-line="1"><text fill="#000000" font-family="sans-serif" font-size="14" font-weight="700" lengthAdjust="spacing" textLength="384.5762" x="10" y="22.9951">Diagrama de Casos de Uso do Site de Assinatura</text></g><!--cluster Sistema de Assinatura do EvoPG--><g class="cluster" data-qualified-name="Sistema de Assinatura do EvoPG" data-source-line="8" id="ent0004"><rect fill="none" height="721" rx="2.5" ry="2.5" style="stroke:#181818;stroke-width:1;" width="271.49" x="120.3881" y="44.2969"/><text fill="#000000" font-family="sans-serif" font-size="14" font-weight="700" lengthAdjust="spacing" textLength="256.874" x="127.6961" y="59.292">Sistema de Assinatura do EvoPG</text></g><!--entity UC1--><g class="entity" data-qualified-name="Sistema de Assinatura do EvoPG.UC1" data-source-line="9" id="ent0005"><ellipse cx="255.6352" cy="288.2991" fill="#F1F1F1" rx="48.3572" ry="25.1422" style="stroke:#181818;stroke-width:0.5;"/><text fill="#000000" font-family="sans-serif" font-size="14" lengthAdjust="spacing" textLength="66.7666" x="222.2519" y="286.1063">Conhecer</text><text fill="#000000" font-family="sans-serif" font-size="14" lengthAdjust="spacing" textLength="55.0225" x="228.124" y="302.4032">produto</text></g><!--entity UC2--><g class="entity" data-qualified-name="Sistema de Assinatura do EvoPG.UC2" data-source-line="10" id="ent0006"><ellipse cx="255.6347" cy="203.2978" fill="#F1F1F1" rx="37.3667" ry="24.8509" style="stroke:#181818;stroke-width:0.5;"/><text fill="#000000" font-family="sans-serif" font-size="14" lengthAdjust="spacing" textLength="51.2627" x="230.0034" y="201.5387">Assinar</text><text fill="#000000" font-family="sans-serif" font-size="14" lengthAdjust="spacing" textLength="38.7939" x="236.2378" y="217.8356">plano</text></g><!--entity UC3--><g class="entity" data-qualified-name="Sistema de Assinatura do EvoPG.UC3" data-source-line="11" id="ent0007"><ellipse cx="255.6417" cy="103.2967" fill="#F1F1F1" rx="69.2436" ry="23.8799" style="stroke:#181818;stroke-width:0.5;"/><text fill="#000000" font-family="sans-serif" font-size="14" lengthAdjust="spacing" textLength="103.4072" x="203.9381" y="103.0406">Aceitar termos</text><text fill="#000000" font-family="sans-serif" font-size="14" lengthAdjust="spacing" textLength="46.6826" x="232.3004" y="119.3375">de uso</text></g><!--entity UC4--><g class="entity" data-qualified-name="Sistema de Assinatura do EvoPG.UC4" data-source-line="12" id="ent0008"><ellipse cx="255.6379" cy="555.2987" fill="#F1F1F1" rx="51.4298" ry="24.6718" style="stroke:#181818;stroke-width:0.5;"/><text fill="#000000" font-family="sans-serif" font-size="14" lengthAdjust="spacing" textLength="72.8369" x="219.2195" y="553.8099">Autenticar</text><text fill="#000000" font-family="sans-serif" font-size="14" lengthAdjust="spacing" textLength="51.8301" x="229.7229" y="570.1068">usuario</text></g><!--entity UC5--><g class="entity" data-qualified-name="Sistema de Assinatura do EvoPG.UC5" data-source-line="13" id="ent0009"><ellipse cx="255.6353" cy="471.2925" fill="#F1F1F1" rx="47.6272" ry="24.1956" style="stroke:#181818;stroke-width:0.5;"/><text fill="#000000" font-family="sans-serif" font-size="14" lengthAdjust="spacing" textLength="68.626" x="221.3223" y="470.537">Gerenciar</text><text fill="#000000" font-family="sans-serif" font-size="14" lengthAdjust="spacing" textLength="39.2041" x="236.0332" y="486.8339">conta</text></g><!--entity UC6--><g class="entity" data-qualified-name="Sistema de Assinatura do EvoPG.UC6" data-source-line="14" id="ent0010"><ellipse cx="255.6344" cy="372.3015" fill="#F1F1F1" rx="66.7463" ry="23.6946" style="stroke:#181818;stroke-width:0.5;"/><text fill="#000000" font-family="sans-serif" font-size="14" lengthAdjust="spacing" textLength="100.3994" x="205.4347" y="372.3438">Atualizar ficha</text><text fill="#000000" font-family="sans-serif" font-size="14" lengthAdjust="spacing" textLength="36.2783" x="237.4952" y="388.6407">fiscal</text></g><!--entity UC7--><g class="entity" data-qualified-name="Sistema de Assinatura do EvoPG.UC7" data-source-line="15" id="ent0011"><ellipse cx="255.6343" cy="640.2976" fill="#F1F1F1" rx="53.9862" ry="25.7007" style="stroke:#181818;stroke-width:0.5;"/><text fill="#000000" font-family="sans-serif" font-size="14" lengthAdjust="spacing" textLength="68.626" x="221.3213" y="636.3038">Gerenciar</text><text fill="#000000" font-family="sans-serif" font-size="14" lengthAdjust="spacing" textLength="73.2061" x="219.0313" y="652.6006">assinatura</text></g><!--entity UC8--><g class="entity" data-qualified-name="Sistema de Assinatura do EvoPG.UC8" data-source-line="16" id="ent0012"><ellipse cx="255.6391" cy="725.2983" fill="#F1F1F1" rx="68.101" ry="24.4114" style="stroke:#181818;stroke-width:0.5;"/><text fill="#000000" font-family="sans-serif" font-size="14" lengthAdjust="spacing" textLength="63.3486" x="223.9648" y="719.3889">Conectar</text><text fill="#000000" font-family="sans-serif" font-size="14" lengthAdjust="spacing" textLength="99.1006" x="206.0888" y="735.6858">Mercado Pago</text></g><!--entity Visitante--><g class="entity" data-qualified-name="Visitante" data-source-line="5" id="ent0002"><ellipse cx="42.5453" cy="216.6469" fill="#F1F1F1" rx="8" ry="8" style="stroke:#181818;stroke-width:0.5;"/><path d="M42.5453,224.6469 L42.5453,251.6469 M29.5453,232.6469 L55.5453,232.6469 M42.5453,251.6469 L29.5453,266.6469 M42.5453,251.6469 L55.5453,266.6469" fill="none" style="stroke:#181818;stroke-width:0.5;"/><text fill="#000000" font-family="sans-serif" font-size="14" lengthAdjust="spacing" textLength="61.6943" x="11.6981" y="281.142">Visitante</text></g><!--entity Cliente--><g class="entity" data-qualified-name="Cliente" data-source-line="6" id="ent0003"><ellipse cx="42.5499" cy="578.6469" fill="#F1F1F1" rx="8" ry="8" style="stroke:#181818;stroke-width:0.5;"/><path d="M42.5499,586.6469 L42.5499,613.6469 M29.5499,594.6469 L55.5499,594.6469 M42.5499,613.6469 L29.5499,628.6469 M42.5499,613.6469 L55.5499,628.6469" fill="none" style="stroke:#181818;stroke-width:0.5;"/><text fill="#000000" font-family="sans-serif" font-size="14" lengthAdjust="spacing" textLength="49.1436" x="17.9781" y="643.142">Cliente</text></g><!--link Visitante to UC1--><g class="link" data-entity-1="ent0002" data-entity-2="ent0005" data-link-type="dependency" data-source-line="19" id="lnk13"><path d="M73.7881,252.3169 C109.4681,259.4169 163.2337,270.1049 204.2037,278.2649" fill="none" id="Visitante-to-UC1" style="stroke:#181818;stroke-width:1;"/><polygon fill="#181818" points="210.0881,279.4369,202.0428,273.7559,205.1844,278.4602,200.4801,281.6018,210.0881,279.4369" style="stroke:#181818;stroke-width:1;"/></g><!--link Visitante to UC2--><g class="link" data-entity-1="ent0002" data-entity-2="ent0006" data-link-type="dependency" data-source-line="20" id="lnk14"><path d="M73.7881,240.1369 C112.3181,232.2869 172.9189,219.9449 213.6489,211.6449" fill="none" id="Visitante-to-UC2" style="stroke:#181818;stroke-width:1;"/><polygon fill="#181818" points="219.5281,210.4469,209.9106,208.3245,214.6288,211.4453,211.508,216.1634,219.5281,210.4469" style="stroke:#181818;stroke-width:1;"/></g><!--link Cliente to UC4--><g class="link" data-entity-1="ent0003" data-entity-2="ent0008" data-link-type="dependency" data-source-line="22" id="lnk15"><path d="M67.3481,602.3169 C101.7481,593.6869 160.1586,579.0174 203.7086,568.0874" fill="none" id="Cliente-to-UC4" style="stroke:#181818;stroke-width:1;"/><polygon fill="#181818" points="209.5281,566.6269,199.8251,564.938,204.6785,567.844,201.7725,572.6974,209.5281,566.6269" style="stroke:#181818;stroke-width:1;"/></g><!--link Cliente to UC5--><g class="link" data-entity-1="ent0003" data-entity-2="ent0009" data-link-type="dependency" data-source-line="23" id="lnk16"><path d="M63.4181,569.7269 C75.2381,550.2569 91.9381,527.7569 112.3881,513.2969 C140.9881,493.0769 173.4479,483.5766 203.1179,478.0966" fill="none" id="Cliente-to-UC5" style="stroke:#181818;stroke-width:1;"/><polygon fill="#181818" points="209.0181,477.0069,199.4413,474.708,204.1012,477.915,200.8943,482.575,209.0181,477.0069" style="stroke:#181818;stroke-width:1;"/></g><!--link Cliente to UC7--><g class="link" data-entity-1="ent0003" data-entity-2="ent0011" data-link-type="dependency" data-source-line="24" id="lnk17"><path d="M67.3481,611.9069 C100.2381,616.8869 154.4658,625.1077 197.7458,631.6677" fill="none" id="Cliente-to-UC7" style="stroke:#181818;stroke-width:1;"/><polygon fill="#181818" points="203.6781,632.5669,195.3792,627.2633,198.7345,631.8176,194.1803,635.173,203.6781,632.5669" style="stroke:#181818;stroke-width:1;"/></g><!--link Cliente to UC8--><g class="link" data-entity-1="ent0003" data-entity-2="ent0012" data-link-type="dependency" data-source-line="25" id="lnk18"><path d="M67.4981,641.6969 C79.4981,656.3169 95.1481,672.5369 112.3881,683.2969 C136.8581,698.5569 161.3158,707.0981 187.6458,713.4581" fill="none" id="Cliente-to-UC8" style="stroke:#181818;stroke-width:1;"/><polygon fill="#181818" points="193.4781,714.8669,185.6689,708.8655,188.6179,713.6929,183.7905,716.6419,193.4781,714.8669" style="stroke:#181818;stroke-width:1;"/></g><!--link UC2 to UC3--><g class="link" data-entity-1="ent0006" data-entity-2="ent0007" data-link-type="dependency" data-source-line="27" id="lnk19"><path d="M255.6381,178.0669 C255.6381,162.5569 255.6381,148.7969 255.6381,133.4869" fill="none" id="UC2-to-UC3" style="stroke:#181818;stroke-width:1;stroke-dasharray:7,7;"/><polygon fill="#181818" points="255.6381,127.4869,251.6381,136.4869,255.6381,132.4869,259.6381,136.4869,255.6381,127.4869" style="stroke:#181818;stroke-width:1;"/><text fill="#000000" font-family="sans-serif" font-size="13" lengthAdjust="spacing" textLength="63.0068" x="212.6381" y="157.3738">&#171;include&#187;</text></g><!--link UC5 to UC6--><g class="link" data-entity-1="ent0009" data-entity-2="ent0010" data-link-type="dependency" data-source-line="28" id="lnk20"><path d="M255.6381,446.8269 C255.6381,431.4769 255.6381,417.7769 255.6381,402.4869" fill="none" id="UC5-to-UC6" style="stroke:#181818;stroke-width:1;stroke-dasharray:7,7;"/><polygon fill="#181818" points="255.6381,396.4869,251.6381,405.4869,255.6381,401.4869,259.6381,405.4869,255.6381,396.4869" style="stroke:#181818;stroke-width:1;"/><text fill="#000000" font-family="sans-serif" font-size="13" lengthAdjust="spacing" textLength="63.0068" x="212.6381" y="426.1138">&#171;include&#187;</text></g><?plantuml-src TP5FImCn4CNl-HH3xnMqVv5Ia5Lw4WgbddePijFjG9f8Pk91yRkRsDtQNV2Mb_dntl16MHt1CsCJyOnG4rGeGSfZBm7g03jMAl99X3rgYcYCewE21eZSd1HgZcILWpS6hOO8Rooiw9LQNJcceapXq3SvSRHZKRea_ZcNl9UFiDsCuCi0926Bak4g-1DPYWV_7aETD8m01VRL_IrqiIcCGzyH3pt2KjuhWb8y1pdud9sa8oSzCcdUc6snIv8mSeTDRx4DHVAM2sM3LsoPMSzA4ph-pB57jYSy-2EBHTUYyt_iyDf92ou6VPGcC_TAqM9kROjDj-7IV1jpFG6Cn-lVfeO_3yQqTsa_fWCz6-Z5G2-DoIvmLzuJU8JLYhrrgQRrEWzcby6yF_W1?></g></svg>
