<svg xmlns="http://www.w3.org/2000/svg" xmlns:xlink="http://www.w3.org/1999/xlink" contentStyleType="text/css" data-diagram-type="CLASS" height="577px" preserveAspectRatio="none" style="width:534px;height:577px;background:#FFFFFF;" version="1.1" viewBox="0 0 534 577" width="534px" zoomAndPan="magnify"><?plantuml 1.2026.3beta4?><defs/><g><g class="title" data-source-line="1"><text fill="#000000" font-family="sans-serif" font-size="14" font-weight="700" lengthAdjust="spacing" textLength="507.5684" x="10" y="22.9951">Diagrama de Classes do Dominio Principal do Site de Assinatura</text></g><!--class Usuario--><g class="entity" data-qualified-name="Usuario" data-source-line="6" id="ent0002"><rect fill="#F1F1F1" height="105.1875" rx="2.5" ry="2.5" style="stroke:#181818;stroke-width:0.5;" width="256.0293" x="252.6907" y="44.2969"/><ellipse cx="349.8533" cy="60.2969" fill="#ADD1B2" rx="11" ry="11" style="stroke:#181818;stroke-width:1;"/><path d="M352.822,65.9375 Q352.2439,66.2344 351.6033,66.375 Q350.9627,66.5313 350.2595,66.5313 Q347.7595,66.5313 346.4314,64.8906 Q345.1189,63.2344 345.1189,60.1094 Q345.1189,56.9844 346.4314,55.3281 Q347.7595,53.6719 350.2595,53.6719 Q350.9627,53.6719 351.6033,53.8281 Q352.2595,53.9844 352.822,54.2813 L352.822,57 Q352.197,56.4219 351.6033,56.1563 Q351.0095,55.875 350.3845,55.875 Q349.0408,55.875 348.3533,56.9531 Q347.6658,58.0156 347.6658,60.1094 Q347.6658,62.2031 348.3533,63.2813 Q349.0408,64.3438 350.3845,64.3438 Q351.0095,64.3438 351.6033,64.0781 Q352.197,63.7969 352.822,63.2188 L352.822,65.9375 Z " fill="#000000"/><text fill="#000000" font-family="sans-serif" font-size="14" lengthAdjust="spacing" textLength="53.2041" x="370.3533" y="65.1436">Usuario</text><line style="stroke:#181818;stroke-width:0.5;" x1="253.6907" x2="507.72" y1="76.2969" y2="76.2969"/><text fill="#000000" font-family="sans-serif" font-size="14" lengthAdjust="spacing" textLength="61.7969" x="258.6907" y="93.292">id : UUID</text><text fill="#000000" font-family="sans-serif" font-size="14" lengthAdjust="spacing" textLength="93.4951" x="258.6907" y="109.5889">nome : string</text><text fill="#000000" font-family="sans-serif" font-size="14" lengthAdjust="spacing" textLength="92.415" x="258.6907" y="125.8857">email : string</text><text fill="#000000" font-family="sans-serif" font-size="14" lengthAdjust="spacing" textLength="244.0293" x="258.6907" y="142.1826">primeiroAcessoPendente : boolean</text></g><!--class ContaEmpresa--><g class="entity" data-qualified-name="ContaEmpresa" data-source-line="13" id="ent0003"><rect fill="#F1F1F1" height="121.4844" rx="2.5" ry="2.5" style="stroke:#181818;stroke-width:0.5;" width="188.4902" x="134.4607" y="226.4769"/><ellipse cx="173.5788" cy="242.4769" fill="#ADD1B2" rx="11" ry="11" style="stroke:#181818;stroke-width:1;"/><path d="M176.5475,248.1175 Q175.9694,248.4144 175.3288,248.555 Q174.6881,248.7113 173.985,248.7113 Q171.485,248.7113 170.1569,247.0706 Q168.8444,245.4144 168.8444,242.2894 Q168.8444,239.1644 170.1569,237.5081 Q171.485,235.8519 173.985,235.8519 Q174.6881,235.8519 175.3288,236.0081 Q175.985,236.1644 176.5475,236.4613 L176.5475,239.18 Q175.9225,238.6019 175.3288,238.3363 Q174.735,238.055 174.11,238.055 Q172.7663,238.055 172.0788,239.1331 Q171.3913,240.1956 171.3913,242.2894 Q171.3913,244.3831 172.0788,245.4613 Q172.7663,246.5238 174.11,246.5238 Q174.735,246.5238 175.3288,246.2581 Q175.9225,245.9769 176.5475,245.3988 L176.5475,248.1175 Z " fill="#000000"/><text fill="#000000" font-family="sans-serif" font-size="14" lengthAdjust="spacing" textLength="102.8945" x="192.9383" y="247.3236">ContaEmpresa</text><line style="stroke:#181818;stroke-width:0.5;" x1="135.4607" x2="321.9509" y1="258.4769" y2="258.4769"/><text fill="#000000" font-family="sans-serif" font-size="14" lengthAdjust="spacing" textLength="61.7969" x="140.4607" y="275.472">id : UUID</text><text fill="#000000" font-family="sans-serif" font-size="14" lengthAdjust="spacing" textLength="134.7773" x="140.4607" y="291.7689">nomeConta : string</text><text fill="#000000" font-family="sans-serif" font-size="14" lengthAdjust="spacing" textLength="129.4248" x="140.4607" y="308.0657">tipoPessoa : string</text><text fill="#000000" font-family="sans-serif" font-size="14" lengthAdjust="spacing" textLength="176.4902" x="140.4607" y="324.3626">statusPagamento : string</text><text fill="#000000" font-family="sans-serif" font-size="14" lengthAdjust="spacing" textLength="138.1064" x="140.4607" y="340.6595">statusConta : string</text></g><!--class Assinatura--><g class="entity" data-qualified-name="Assinatura" data-source-line="21" id="ent0004"><rect fill="#F1F1F1" height="137.7813" rx="2.5" ry="2.5" style="stroke:#181818;stroke-width:0.5;" width="205.3545" x="11.0307" y="424.9669"/><ellipse cx="72.3559" cy="440.9669" fill="#ADD1B2" rx="11" ry="11" style="stroke:#181818;stroke-width:1;"/><path d="M75.3246,446.6075 Q74.7465,446.9044 74.1059,447.045 Q73.4653,447.2013 72.7621,447.2013 Q70.2621,447.2013 68.934,445.5606 Q67.6215,443.9044 67.6215,440.7794 Q67.6215,437.6544 68.934,435.9981 Q70.2621,434.3419 72.7621,434.3419 Q73.4653,434.3419 74.1059,434.4981 Q74.7621,434.6544 75.3246,434.9513 L75.3246,437.67 Q74.6996,437.0919 74.1059,436.8263 Q73.5121,436.545 72.8871,436.545 Q71.5434,436.545 70.8559,437.6231 Q70.1684,438.6856 70.1684,440.7794 Q70.1684,442.8731 70.8559,443.9513 Q71.5434,445.0138 72.8871,445.0138 Q73.5121,445.0138 74.1059,444.7481 Q74.6996,444.4669 75.3246,443.8888 L75.3246,446.6075 Z " fill="#000000"/><text fill="#000000" font-family="sans-serif" font-size="14" lengthAdjust="spacing" textLength="74.2041" x="92.8559" y="445.8136">Assinatura</text><line style="stroke:#181818;stroke-width:0.5;" x1="12.0307" x2="215.3852" y1="456.9669" y2="456.9669"/><text fill="#000000" font-family="sans-serif" font-size="14" lengthAdjust="spacing" textLength="61.7969" x="17.0307" y="473.962">id : UUID</text><text fill="#000000" font-family="sans-serif" font-size="14" lengthAdjust="spacing" textLength="92.5996" x="17.0307" y="490.2589">plano : string</text><text fill="#000000" font-family="sans-serif" font-size="14" lengthAdjust="spacing" textLength="96.8242" x="17.0307" y="506.5557">status : string</text><text fill="#000000" font-family="sans-serif" font-size="14" lengthAdjust="spacing" textLength="154.2051" x="17.0307" y="522.8526">dataRenovacao : date</text><text fill="#000000" font-family="sans-serif" font-size="14" lengthAdjust="spacing" textLength="193.3545" x="17.0307" y="539.1495">gatewayPagamento : string</text><text fill="#000000" font-family="sans-serif" font-size="14" lengthAdjust="spacing" textLength="174.7539" x="17.0307" y="555.4464">stripeCustomerId : string</text></g><!--class IntegracaoPagamento--><g class="entity" data-qualified-name="IntegracaoPagamento" data-source-line="30" id="ent0005"><rect fill="#F1F1F1" height="105.1875" rx="2.5" ry="2.5" style="stroke:#181818;stroke-width:0.5;" width="186.834" x="251.2907" y="441.2669"/><ellipse cx="266.2907" cy="457.2669" fill="#ADD1B2" rx="11" ry="11" style="stroke:#181818;stroke-width:1;"/><path d="M269.2594,462.9075 Q268.6813,463.2044 268.0407,463.345 Q267.4001,463.5013 266.6969,463.5013 Q264.1969,463.5013 262.8688,461.8606 Q261.5563,460.2044 261.5563,457.0794 Q261.5563,453.9544 262.8688,452.2981 Q264.1969,450.6419 266.6969,450.6419 Q267.4001,450.6419 268.0407,450.7981 Q268.6969,450.9544 269.2594,451.2513 L269.2594,453.97 Q268.6344,453.3919 268.0407,453.1263 Q267.4469,452.845 266.8219,452.845 Q265.4782,452.845 264.7907,453.9231 Q264.1032,454.9856 264.1032,457.0794 Q264.1032,459.1731 264.7907,460.2513 Q265.4782,461.3138 266.8219,461.3138 Q267.4469,461.3138 268.0407,461.0481 Q268.6344,460.7669 269.2594,460.1888 L269.2594,462.9075 Z " fill="#000000"/><text fill="#000000" font-family="sans-serif" font-size="14" lengthAdjust="spacing" textLength="154.834" x="280.2907" y="462.1136">IntegracaoPagamento</text><line style="stroke:#181818;stroke-width:0.5;" x1="252.2907" x2="437.1247" y1="473.2669" y2="473.2669"/><text fill="#000000" font-family="sans-serif" font-size="14" lengthAdjust="spacing" textLength="76.5146" x="257.2907" y="490.262">id : integer</text><text fill="#000000" font-family="sans-serif" font-size="14" lengthAdjust="spacing" textLength="112.4443" x="257.2907" y="506.5589">provider : string</text><text fill="#000000" font-family="sans-serif" font-size="14" lengthAdjust="spacing" textLength="96.8242" x="257.2907" y="522.8557">status : string</text><text fill="#000000" font-family="sans-serif" font-size="14" lengthAdjust="spacing" textLength="93.4541" x="257.2907" y="539.1526">token : string</text></g><!--class TokenRedefinicao--><g class="entity" data-qualified-name="TokenRedefinicao" data-source-line="37" id="ent0006"><rect fill="#F1F1F1" height="105.1875" rx="2.5" ry="2.5" style="stroke:#181818;stroke-width:0.5;" width="157.667" x="357.8707" y="234.6269"/><ellipse cx="373.1823" cy="250.6269" fill="#ADD1B2" rx="11" ry="11" style="stroke:#181818;stroke-width:1;"/><path d="M376.151,256.2675 Q375.5729,256.5644 374.9323,256.705 Q374.2916,256.8613 373.5885,256.8613 Q371.0885,256.8613 369.7604,255.2206 Q368.4479,253.5644 368.4479,250.4394 Q368.4479,247.3144 369.7604,245.6581 Q371.0885,244.0019 373.5885,244.0019 Q374.2916,244.0019 374.9323,244.1581 Q375.5885,244.3144 376.151,244.6113 L376.151,247.33 Q375.526,246.7519 374.9323,246.4863 Q374.3385,246.205 373.7135,246.205 Q372.3698,246.205 371.6823,247.2831 Q370.9948,248.3456 370.9948,250.4394 Q370.9948,252.5331 371.6823,253.6113 Q372.3698,254.6738 373.7135,254.6738 Q374.3385,254.6738 374.9323,254.4081 Q375.526,254.1269 376.151,253.5488 L376.151,256.2675 Z " fill="#000000"/><text fill="#000000" font-family="sans-serif" font-size="14" lengthAdjust="spacing" textLength="124.9746" x="387.2515" y="255.4736">TokenRedefinicao</text><line style="stroke:#181818;stroke-width:0.5;" x1="358.8707" x2="514.5377" y1="266.6269" y2="266.6269"/><text fill="#000000" font-family="sans-serif" font-size="14" lengthAdjust="spacing" textLength="61.7969" x="363.8707" y="283.622">id : UUID</text><text fill="#000000" font-family="sans-serif" font-size="14" lengthAdjust="spacing" textLength="93.4541" x="363.8707" y="299.9189">token : string</text><text fill="#000000" font-family="sans-serif" font-size="14" lengthAdjust="spacing" textLength="145.667" x="363.8707" y="316.2157">expiracao : datetime</text><text fill="#000000" font-family="sans-serif" font-size="14" lengthAdjust="spacing" textLength="111.7881" x="363.8707" y="332.5126">usado : boolean</text></g><!--link Usuario to ContaEmpresa--><g class="link" data-entity-1="ent0002" data-entity-2="ent0003" data-link-type="association" data-source-line="44" id="lnk7"><path codeLine="44" d="M338.7707,149.8469 C319.7007,173.4769 297.0307,201.5769 277.2307,226.1069" fill="none" id="Usuario-ContaEmpresa" style="stroke:#181818;stroke-width:1;"/><text fill="#000000" font-family="sans-serif" font-size="13" lengthAdjust="spacing" textLength="70.1733" x="315.7107" y="192.5438">pertence a</text><text fill="#000000" font-family="sans-serif" font-size="13" lengthAdjust="spacing" textLength="8.271" x="324.9027" y="169.6682">1</text><text fill="#000000" font-family="sans-serif" font-size="13" lengthAdjust="spacing" textLength="8.271" x="274.3945" y="215.2482">1</text></g><!--link ContaEmpresa to Assinatura--><g class="link" data-entity-1="ent0003" data-entity-2="ent0004" data-link-type="association" data-source-line="45" id="lnk8"><path codeLine="45" d="M194.9807,348.2369 C181.5307,372.1769 165.9607,399.8669 152.0807,424.5669" fill="none" id="ContaEmpresa-Assinatura" style="stroke:#181818;stroke-width:1;"/><text fill="#000000" font-family="sans-serif" font-size="13" lengthAdjust="spacing" textLength="41.6025" x="179.7107" y="391.0338">possui</text><text fill="#000000" font-family="sans-serif" font-size="13" lengthAdjust="spacing" textLength="8.271" x="182.6344" y="368.2338">1</text><text fill="#000000" font-family="sans-serif" font-size="13" lengthAdjust="spacing" textLength="8.271" x="147.6393" y="413.7216">1</text></g><!--link ContaEmpresa to IntegracaoPagamento--><g class="link" data-entity-1="ent0003" data-entity-2="ent0005" data-link-type="association" data-source-line="46" id="lnk9"><path codeLine="46" d="M262.7307,348.2369 C279.3707,377.6069 299.2207,412.6069 315.2107,440.8269" fill="none" id="ContaEmpresa-IntegracaoPagamento" style="stroke:#181818;stroke-width:1;"/><text fill="#000000" font-family="sans-serif" font-size="13" lengthAdjust="spacing" textLength="54.6279" x="287.7107" y="391.0338">mantem</text><text fill="#000000" font-family="sans-serif" font-size="13" lengthAdjust="spacing" textLength="8.271" x="258.218" y="368.2338">1</text><text fill="#000000" font-family="sans-serif" font-size="13" lengthAdjust="spacing" textLength="23.0356" x="286.9602" y="430.1464">0..*</text></g><!--link Usuario to TokenRedefinicao--><g class="link" data-entity-1="ent0002" data-entity-2="ent0006" data-link-type="association" data-source-line="47" id="lnk10"><path codeLine="47" d="M396.1607,149.8469 C403.9907,176.1969 413.4807,208.1069 421.3107,234.4269" fill="none" id="Usuario-TokenRedefinicao" style="stroke:#181818;stroke-width:1;"/><text fill="#000000" font-family="sans-serif" font-size="13" lengthAdjust="spacing" textLength="44.7383" x="409.7107" y="192.5438">recebe</text><text fill="#000000" font-family="sans-serif" font-size="13" lengthAdjust="spacing" textLength="8.271" x="389.6458" y="169.6682">1</text><text fill="#000000" font-family="sans-serif" font-size="13" lengthAdjust="spacing" textLength="24.8066" x="393.6839" y="223.4007">0..1</text></g><?plantuml-src VLB1JW913BtlLpGSJJ1wvKR00pS2yW5bfsBZpdGoxQ9e_7Ux9E02gwUPUMrVN_l6s1g2EUEkO4G81BC6LKaX2CmbScA1PU5KSyQc0zTirELDLJcXjGMhIjyuPNG6gBlggLdXRMkqg2Mj-PFWeNfbhw6OxG2Hx5M2LjKn6JRQOl4kNnK01vZ0PhEO-pr997-fSwMTloaYDtqW5ux4HQOrgSgIKg1aNSbMf25CrVUfnKoIuLFCXHG7-nmJ-jp6sHcTzW9Lyu5rYJkCtafkGrSyPm6_oxffdnjC0qnz9A3XYfBiiSOkrT_ayCwFTppy8QTmfbchvjELHHZGjF1bkUjE-Sjm5iTTaCfnox9txyh_4atUA0qqUUxm5GLwyP_KgRyU_whGRVx8N7g3cfliSAiOvDBRqySPFOvWF3uU5qPF85CnIZK1LXUHNaNF6SyNrPQ7Sn_kx-z6WqkRG4I7uuqWB_7RpGecKAYcBVq0?></g></svg>
